<?xml version="1.0" encoding="utf-8"?>
<!-- Svg Vector Icons : http://www.onlinewebfonts.com/icon -->
<!DOCTYPE svg PUBLIC "-//W3C//DTD SVG 1.1//EN" "http://www.w3.org/Graphics/SVG/1.1/DTD/svg11.dtd">
<svg version="1.1" xmlns="http://www.w3.org/2000/svg" xmlns:xlink="http://www.w3.org/1999/xlink" x="0px" y="0px" viewBox="0 0 1000 1000" enable-background="new 0 0 1000 1000" xml:space="preserve">
<metadata> Svg Vector Icons : http://www.onlinewebfonts.com/icon </metadata>
<g><path d="M500,920c-9.5,0-17.5-3.3-24.1-9.8L134.7,581c-3.7-2.9-8.7-7.7-15-14.2c-6.4-6.6-16.5-18.5-30.4-35.8c-13.9-17.3-26.3-35.1-37.2-53.3s-20.7-40.3-29.3-66.2C14.2,385.5,10,360.4,10,335.9c0-80.2,23.1-142.9,69.5-188.1c46.3-45.2,110.3-67.8,192-67.8c22.6,0,45.7,3.9,69.2,11.7c23.5,7.9,45.4,18.4,65.6,31.7s37.6,25.8,52.2,37.4c14.5,11.7,28.4,24.1,41.5,37.2c13.1-13.1,26.9-25.5,41.5-37.2c14.6-11.7,32-24.2,52.3-37.4c20.3-13.3,42.2-23.9,65.6-31.7C682.9,83.9,706,80,728.6,80c81.7,0,145.6,22.6,192,67.8c46.3,45.2,69.5,107.9,69.5,188.1c0,80.6-41.8,162.6-125.3,246.1L524.1,910.2C517.5,916.7,509.5,920,500,920z"/></g>
</svg>